<?xml version="1.0" encoding="UTF-8" standalone="no"?><svg width="1000" height="1000" viewBox="0 0 1000 1000" xmlns="http://www.w3.org/2000/svg" xmlns:xlink="http://www.w3.org/1999/xlink"><title>152 - iPad</title><defs><path d="M24.095 56.93c29.813-54.738 97.16-54.738 97.16-54.738l20.627 25.8s-7.791 241.279-7.791 351.335c-48.172 25.899-56.42-3.277-76.553 7.258-29.852-23.51-10.795-3.75-37.79-30.314C-14.477 202.808 7.53 150.651 24.095 56.93z" id="a"/><path d="M8.851 35.948C38.056-18.528 47.971 5.14 47.971 5.14l20.206 25.676s25.39 295.176 7.12 325.987c-35.204-27.387-17.018-16.547-42.537-43.073C3.518 290.334-7.376 129.22 8.851 35.948z" id="c"/></defs><g fill="none" fill-rule="evenodd"><path d="M165.061 506.786l-.722 97.093s-44.452 22.415-56.977 33.71c-57.384-23.769-53.106-69.821-43.641-100.483 19.054-17.67 101.34-30.32 101.34-30.32z" fill="#323136"/><path d="M26.05 534.328c43.21-33.042 41.132 2.977 41.132 8.93-8.104 44.706 18.43 83.353 18.43 83.353l-28.214 17.862S13.015 598.819 26.05 534.328z" fill="#414246"/><path d="M44.306 519.993s113.981-41.917 165.223-21.247c-65.023 9.257-141.889 42.462-141.889 42.462l-23.334-21.215z" fill="#252527"/><path d="M57.922 635.496c12.194 0 27.202-15.357 27.202-15.357s16.687 13.079 26.53 12.418c4.306-.29 36.31-23.966 47.123-28.382 10.813-4.417 11.335 6.184 6.608 10.575-43.74 14.711-63.61 41.16-73.555 57.05-33.908 4.481-87.787-63.416-73.495-123.708 17.057 31.072 14.547 64.708 39.587 87.404z" fill="#191718"/><path d="M71.843 513.67c-72.876 19.835-47.574 96.381-47.574 96.381S-.202 570.88 14.69 538.178c14.58-24.507 14.531-24.507 57.152-24.507z" fill="#3C3C3E"/><path d="M224.078 360.564c16.757-27.263 34.291 0 34.291 0l6.235 84.71s-14.14 14.485-34.291 0c-10.266-23.247-6.235-56.878-6.235-84.71zm9.352 0c-.304 21.643 3.118 78.868 3.118 78.868s12.7 15.332 15.586 0c0-20.413-3.117-78.868-3.117-78.868s-12.774-9.028-15.587 0z" fill="#3E3E3E"/><path d="M60.819 333.934c43.353-23.874 152.232-21.867 152.232-21.867s9.291 145.12-3.014 192.629c-70.534-5.952-139.838 15.859-139.838 15.859s-19.066-134.187-9.38-186.621z" fill="#2D2B2E"/><path fill="#232323" d="M209.53 362.216h15.49l5.162 75.727h-15.49z"/><path d="M370.139 203.195c14.59-4.783-8.755 15.698-23.766 21.598-227.4-102.486-315.225 88.391-291.627 108.578-17.06 8.732-58.552 4.333-45.211-.91C4.79 259.542 89.969 58.628 370.139 203.194z" fill="#404042"/><path d="M347.216 225.165c-52.489 31.78-32.533 61.839-32.533 89.006-147.7-15.837-276.488 34.134-270.153 16.801 10.865-62.002 40.67-98.722 77.6-119.04 86.777-47.743 212.897-4.927 225.086 13.233z" fill="#30302E"/><path d="M284.428 165.39c60.479 22.094 96.754 52.309 89.378 52.309-77.147-40.378-122.888-55.434-223.036-44.815C86.29 198.748 14.698 230.572 11.38 341.562c-15.531.374-16.563-92.389 60.296-142.814 59.665-39.146 108.81-54.915 212.752-33.357z" fill="#111113"/><path d="M284.428 158.506c60.479 22.094 96.754 52.308 89.378 52.308C296.66 170.437 250.918 155.381 150.77 166 86.29 191.863 14.698 223.688 11.38 334.677c-15.531.375-16.563-92.388 60.296-142.814 59.665-39.145 108.81-54.914 212.752-33.357z" fill="#403E3F"/><path d="M309.649 259.799c-9.266-23.29 152.056-123.235 240.77-102.198 67.621-21.037 183.983 112.065 166.91 198.872-39.905 56.472-216.713 35.566-338.635 39.481-75.443-31.804-78.31-136.155-69.045-136.155z" fill="#4C4B50"/><path d="M322.36 44.662c8.925-6.026 32.873-1.023 26.753 5.924C275 77.001 231.283 150.802 231.283 150.802l-24.754-2s38.793-72.995 115.83-104.14z" fill="#151314"/><path d="M309.529 36.653l21.034 5.931s-87.297 38.984-122.6 104.524c-4.256 3.577-14.89.957-11.57-2.931C224.972 79.123 309.529 36.653 309.529 36.653z" fill="#353334"/><path d="M436.712 27.884C589.408 33.052 670.779 223.53 670.779 223.53h-26.322S578.327 63.763 436.712 27.884z" fill="#4A484D"/><path d="M388.792 47.155c-12.631-8.93-43.464-24.806-32.3-17.737 213.022-39.762 293.634 195.111 293.634 195.111h-17.618S554.635 21.551 388.792 47.155z" fill="#212025"/><path d="M663.894 252.067h24.784s14.306 28.12 16.522 45.355c-6.088 2.835-27.537 2.835-27.537 2.835l-13.769-48.19z" fill="#434247"/><path fill="#1D1B20" d="M650.126 267.365l11.015-15.298 16.522 55.074H661.14z"/><path fill="#515153" d="M650.126 224.53h28.596l12.71 20.652h-25.42z"/><path d="M615.878 245.198c2.182-13.637 26.442-20.669 26.442-20.669l14.69 37.872-23.504 17.203s-19.853-20.506-17.628-34.406z" fill="#141215"/><path fill="#545456" d="M636.357 224.53h18.775l15.647 22.03-12.517 5.507z"/><path d="M271.488 22.438S153.338 46.12 95.607 175.922c-4.267 4.622-24.132 15.627-14.069 5.594 38.315-178.09 189.95-159.078 189.95-159.078z" fill="#303030"/><path d="M237.067 25.803C442.01-30.39 563.63 235.338 563.63 235.338l-34.624 2.96S431.173 2.976 237.066 25.803z" fill="#4B4A4F"/><path d="M85.612 178.304c193.182-372.152 452.365 43.268 452.365 43.268l-15.819 2.957s-201.822-384.792-418.016-48.037c-36.26 11.556 4.576-31.308-18.53 1.812z" fill="#1D1B20"/><path fill="#222021" d="M533.092 261.901l12.517-2.95 21.905 59.008-15.646 2.95z"/><path fill="#514F50" d="M546.86 261.901l9.389-2.95 25.033 61.959h-12.516z"/><path fill="#4F4E53" d="M539.977 227.111l28.684-2.582 5.737 20.653H551.45z"/><path d="M553.745 245.182h24.784l2.753 13.769s-9.223-6.884-27.537-2.754v-11.015zM659.878 245.182h28.685l2.868 13.769s-15.345-9.638-34.421-5.507l2.868-8.262z" fill="#282629"/><path fill="#262427" d="M491.786 239.282l34.017-14.753 14.174 32.455-28.348 29.504z"/><path fill="#656567" d="M526.208 230.266l16.522-5.737 11.015 22.948-11.015 11.474z"/><path d="M670.779 394.916s35.346-.677 44.291-5.163c8.772 3.195 0 12.908 0 12.908l-44.291 7.745v-15.49z" fill="#5B595A"/><path fill="#FFFBF7" d="M553.745 323.822l15.299-2.912 12.238 75.727h-12.238z"/><path fill="#706C69" d="M539.977 320.91h13.768l13.769 75.727h-13.769z"/><path fill="#424041" d="M512.44 320.91l33.13 2.912 15.06 72.815-33.131-2.912z"/><path d="M553.514 319.034c33.467-15.884 149.075-18.777 149.075-18.777s9.495 56.392 9.495 77.712c-32.229 17.835-143.998 22.784-143.998 22.784s-7.791-56.033-14.572-81.72z" fill="#CAC8CB"/><path fill="#828083" d="M620.704 396.407l50.075-6.654 2 21-50.195 15.422z"/><path d="M169.125 643.12c35.776 0 41.131-6.944 59.243-6.944 10.524 115.947 137.43 156.163 137.43 156.163s-196.673 5.888-196.673-149.219z" fill="#201F1D"/><path d="M474.36 432.556c8.67 7.74-215.727 28.643-247.253 103.41 0-32.593-30.23-35.538-30.23-35.538s70.82-67.872 277.483-67.872z" fill="#3E3E40"/><path d="M598.762 418.527l118.247-15.832 122.818 6.665s-179.953 34.138-250.724 58.153c-70.771 12.238-40.256-11.914-36.904-17.01 110.26-22.389 46.563-31.976 46.563-31.976z" fill="#6B666C"/><path d="M224.374 626.634l261.767 75.722s-11.554 76.527 35.683 167.948c-20.793-13.226-44.12-32.594-98.956-62.203-75.676-11.944-96.507-34.3-144.943-52.082-47.834-52.341-53.551-129.385-53.551-129.385z" fill="#1A1613"/><path d="M373.637 454.666s33.154 43.347 159.839 43.347c-51.568 50.167-51.568 208.357-51.568 208.357L225.56 633.39v-18.625c45.614-7.487 61.149-46.195 0-76.527 13.955-60.466 148.077-83.572 148.077-83.572z" fill="#2A282B"/><path d="M596.8 413.322s37.957 11.203 27.538 20.344c-10.418 9.14-72.398 15.264-73.093 20.84-1.506 12.08 44.492 10.845 44.492 10.845s-46.498 14.962-70.273 41.219c-67.862-2.37-138.452-31.8-155.967-52.065 53.239-24.461 227.304-41.183 227.304-41.183z" fill="#302E31"/><path d="M961.122 419.418c-207.524-8.938-343.169 57.78-343.169 57.78l-30.732-15.582s279.108-86.584 373.901-42.198z" fill="#959398"/><path d="M560.785 522.689c122.73-84.01 297.025-85.59 413.733-99.686 42.25-37.543 23.072 244.09 0 345.433-32.597 52.182-301.34 198.02-398.664 119.516-32.608 13.86-84.505-253.075-15.069-365.263z" fill="#57504A"/><path d="M482.925 662.71s26.379 11.905 45.575 11.905c8.268 0-27.966 227.686 120.514 236.38C438.678 935.38 482.925 662.71 482.925 662.71z" fill="#4C453E"/><path d="M937.892 412.042c20.43-4.897 64.268 6.988 46.198 12.346-321.347 14.61-423.31 101.454-423.31 101.454s0-85.8 377.112-113.8z" fill="#CFCFD6"/><path d="M590.345 464.548l31.869 9.235s-42.929 9.03-72.36 75.731c-13.465 30.518-18.193 73.107-20.603 132.427-21.39-7.215-27.753-10.41-44.53-19.72 0-188.438 105.624-197.673 105.624-197.673z" fill="#ADABB0"/><path fill="#9A9693" d="M608.82 396.637h13.768v27.538l-13.768-2.754z"/><path fill="#3D383C" d="M595.051 398.637h13.769v18.653l-13.769-2.581z"/><path d="M553.745 252.067h19.276s9.015 26.279 20.03 55.819c-5.507 4.28-20.03 3.94-20.03 3.94l-19.276-59.76z" fill="#4A484B"/><path fill="#323031" d="M37.422 332.678h25.816l8.605 185.726-28.684 9.035z"/><path fill="#696864" d="M28.537 362.216h13.015l2.754 117.033-13.015-3z"/><path d="M168.858 512.038c17.614-11.712 43.85-21.935 59.569 4.487 3.933 31.899.028 120.956.028 120.956s-41.408 15.731-55.852 0c-6.658-32.321-3.745-92.928-3.745-125.443z" fill="#151316"/><path d="M223.298 534.324s48.19 19.177 48.19 41.306c0 28.029-45.178 41.305-45.178 41.305l-3.012-82.611z" fill="#211F20"/><path d="M223.298 541.208s41.306 13.107 41.306 34.951c0 27.67-38.356 40.776-38.356 40.776l-2.95-75.727z" fill="#565455"/><path d="M216.414 548.092s41.306 9.857 41.306 30.98c0 26.755-38.129 30.98-38.129 30.98l-3.177-61.96z" fill="#353336"/><path d="M161.974 512.038c17.614-11.712 43.85-21.935 59.569 4.487 3.933 31.899.028 120.956.028 120.956s-41.409 15.731-55.852 0c-6.659-32.321-3.745-92.928-3.745-125.443z" fill="#464445"/><path d="M171.385 519.173c6.468-12.38 27.163 0 27.163 0s6.983 80.817 2.716 112.67c-6.598 12.926-29.879 0-29.879 0s-7.114-83.16 0-112.67z" fill="#2A282B"/><g transform="translate(223.298 561.86)"><ellipse fill="#2E2C30" cx="17.211" cy="20.653" rx="17.211" ry="20.653"/><ellipse fill="#393438" cx="14.752" cy="19.755" rx="9.456" ry="14.367"/><path fill="#161515" d="M17.042 9.065l3.456 1.538-8.035 18.048-3.456-1.54z"/></g><g><path fill="#4A484B" d="M435.564 615.406l28.685 6.119-2.868 36.716-25.817-6.12z"/><path fill="#373536" d="M432.696 618.465l22.948 6.12v33.656l-22.948-6.12z"/><path fill="#4A484B" d="M398.274 603.167l28.685 6.12-2.868 36.716-25.817-6.12z"/><path fill="#373536" d="M395.406 606.226l22.948 6.12v33.657l-22.948-6.12z"/></g><g transform="translate(574.398 493.018)"><mask id="b" fill="#fff"><use xlink:href="#a"/></mask><g mask="url(#b)"><path fill="#2E2926" d="M5.991 239.149l4.125-11.567 113.216 121.365-1.477 14.046z"/><path fill="#130F0E" d="M6.613 233.236l3.503-5.654 113.216 121.365-.544 5.177z"/><path fill="#737069" d="M-1.505 238.36l3.503-5.653 113.216 121.365-.544 5.177z"/></g><g mask="url(#b)"><path fill="#2E2926" d="M2.223 268.877l4.124-11.567 113.216 121.365-1.476 14.046z"/><path fill="#130F0E" d="M2.844 262.964l3.503-5.654 113.216 121.365-.544 5.177z"/><path fill="#737069" d="M-5.274 268.089l3.503-5.654L111.445 383.8l-.544 5.177z"/></g><g mask="url(#b)"><path fill="#2E2926" d="M2.223 304.55l4.124-11.567 113.216 121.365-1.476 14.046z"/><path fill="#130F0E" d="M2.844 298.637l3.503-5.654 113.216 121.365-.544 5.177z"/><path fill="#737069" d="M-5.274 303.762l3.503-5.654 113.216 121.365-.544 5.177z"/></g><g mask="url(#b)"><path fill="#2E2926" d="M-1.546 334.278l4.124-11.567 113.216 121.365-1.476 14.046z"/><path fill="#130F0E" d="M-.925 328.365l3.503-5.654 113.216 121.365-.544 5.177z"/><path fill="#737069" d="M-9.043 333.49l3.503-5.654L107.676 449.2l-.544 5.177z"/></g><g mask="url(#b)"><path fill="#2E2926" d="M17.298 108.347l4.125-11.567 113.215 121.365-1.476 14.046z"/><path fill="#130F0E" d="M17.92 102.434l3.503-5.654 113.215 121.365-.544 5.177z"/><path fill="#737069" d="M9.802 107.559l3.503-5.654L126.52 223.27l-.544 5.177z"/></g><g mask="url(#b)"><path fill="#2E2926" d="M13.53 138.075l4.124-11.567 113.215 121.365-1.476 14.046z"/><path fill="#130F0E" d="M14.15 132.162l3.504-5.654 113.215 121.365-.544 5.177z"/><path fill="#737069" d="M6.033 137.287l3.503-5.654 113.216 121.365-.545 5.177z"/></g><g mask="url(#b)"><path fill="#2E2926" d="M13.53 173.748l4.124-11.567 113.215 121.365-1.476 14.046z"/><path fill="#130F0E" d="M14.15 167.835l3.504-5.654 113.215 121.365-.544 5.177z"/><path fill="#737069" d="M6.033 172.96l3.503-5.654 113.216 121.365-.545 5.177z"/></g><g mask="url(#b)"><path fill="#2E2926" d="M9.76 203.476l4.125-11.567L127.1 313.274l-1.477 14.046z"/><path fill="#130F0E" d="M10.382 197.563l3.503-5.654L127.1 313.274l-.545 5.177z"/><path fill="#737069" d="M2.264 202.688l3.503-5.654 113.216 121.365-.544 5.177z"/></g><g mask="url(#b)"><path fill="#2E2926" d="M36.142-13.537l4.125-11.567L153.483 96.262l-1.477 14.046z"/><path fill="#130F0E" d="M36.764-19.45l3.503-5.654L153.483 96.262l-.544 5.176z"/><path fill="#737069" d="M28.646-14.325l3.503-5.654 113.216 121.366-.544 5.176z"/></g><g mask="url(#b)"><path fill="#2E2926" d="M36.142-46.237l4.125-11.567L153.483 63.56l-1.477 14.046z"/><path fill="#130F0E" d="M36.764-52.15l3.503-5.654L153.483 63.56l-.544 5.177z"/><path fill="#737069" d="M28.646-47.025l3.503-5.654L145.365 68.686l-.544 5.177z"/></g><g mask="url(#b)"><path fill="#2E2926" d="M36.142-75.965l4.125-11.567L153.483 33.833l-1.477 14.047z"/><path fill="#130F0E" d="M36.764-81.878l3.503-5.654L153.483 33.833l-.544 5.177z"/><path fill="#737069" d="M28.646-76.753l3.503-5.654L145.365 38.958l-.544 5.177z"/></g><g mask="url(#b)"><path fill="#2E2926" d="M32.374 16.19l4.124-11.566 113.216 121.365-1.477 14.047z"/><path fill="#130F0E" d="M32.995 10.278l3.503-5.654 113.216 121.365-.544 5.177z"/><path fill="#737069" d="M24.877 15.403l3.503-5.654 113.216 121.365-.544 5.177z"/></g><g mask="url(#b)"><path fill="#2E2926" d="M32.374 51.864l4.124-11.567 113.216 121.366-1.477 14.046z"/><path fill="#130F0E" d="M32.995 45.951l3.503-5.654 113.216 121.366-.544 5.176z"/><path fill="#737069" d="M24.877 51.076l3.503-5.654 113.216 121.366-.544 5.176z"/></g><g mask="url(#b)"><path fill="#2E2926" d="M28.605 81.592l4.124-11.567L145.945 191.39l-1.476 14.047z"/><path fill="#130F0E" d="M29.226 75.679l3.503-5.654L145.945 191.39l-.544 5.177z"/><path fill="#737069" d="M21.108 80.804l3.503-5.654 113.216 121.365-.544 5.177z"/></g></g><g transform="matrix(-1 0 0 1 987.457 444.828)"><mask id="d" fill="#fff"><use xlink:href="#c"/></mask><g mask="url(#d)"><path fill="#2E2926" d="M-32.291 250.656l5.241-11.029 97.517 131.494-2.922 13.749z"/><path fill="#130F0E" d="M-31.06 244.868l4.01-5.24L70.467 371.12l-1.077 5.067z"/><path fill="#737069" d="M-39.514 249.12l4.012-5.24 97.516 131.493-1.077 5.068z"/></g><g mask="url(#d)"><path fill="#2E2926" d="M-35.983 280.242l5.241-11.03 97.517 131.494-2.922 13.75z"/><path fill="#130F0E" d="M-34.753 274.454l4.011-5.241 97.517 131.493-1.077 5.068z"/><path fill="#737069" d="M-43.206 278.706l4.012-5.24 97.516 131.493-1.077 5.067z"/></g><g mask="url(#d)"><path fill="#2E2926" d="M-35.983 315.744l5.241-11.029L66.775 436.21l-2.922 13.749z"/><path fill="#130F0E" d="M-34.753 309.956l4.011-5.24 97.517 131.493-1.077 5.067z"/><path fill="#737069" d="M-43.206 314.209l4.012-5.241 97.516 131.494-1.077 5.067z"/></g><g mask="url(#d)"><path fill="#2E2926" d="M-39.675 345.33l5.241-11.03 97.517 131.494-2.922 13.75z"/><path fill="#130F0E" d="M-38.445 339.542l4.011-5.241 97.517 131.493-1.077 5.068z"/><path fill="#737069" d="M-46.897 343.794l4.01-5.24 97.518 131.493-1.078 5.067z"/></g><g mask="url(#d)"><path fill="#2E2926" d="M-21.215 120.48l5.241-11.029 97.517 131.494-2.922 13.749z"/><path fill="#130F0E" d="M-19.985 114.692l4.011-5.24 97.517 131.493-1.077 5.067z"/><path fill="#737069" d="M-28.438 118.945l4.011-5.241L73.09 245.197l-1.077 5.067z"/></g><g mask="url(#d)"><path fill="#2E2926" d="M-24.907 150.065l5.241-11.028L77.851 270.53l-2.922 13.75z"/><path fill="#130F0E" d="M-23.677 144.278l4.011-5.241L77.851 270.53l-1.077 5.067z"/><path fill="#737069" d="M-32.13 148.53l4.012-5.24 97.516 131.493-1.077 5.067z"/></g><g mask="url(#d)"><path fill="#2E2926" d="M-24.907 185.568l5.241-11.029 97.517 131.494-2.922 13.749z"/><path fill="#130F0E" d="M-23.677 179.78l4.011-5.24 97.517 131.493-1.077 5.067z"/><path fill="#737069" d="M-32.13 184.033l4.012-5.241 97.516 131.493-1.077 5.068z"/></g><g mask="url(#d)"><path fill="#2E2926" d="M-28.6 215.153l5.242-11.028L74.16 335.618l-2.922 13.75z"/><path fill="#130F0E" d="M-27.369 209.366l4.011-5.241L74.16 335.618l-1.077 5.067z"/><path fill="#737069" d="M-35.822 213.618l4.012-5.24L65.706 339.87l-1.077 5.067z"/></g><g mask="url(#d)"><path fill="#2E2926" d="M-2.755-.82l5.241-11.03 97.517 131.494-2.923 13.75z"/><path fill="#130F0E" d="M-1.525-6.608l4.011-5.241 97.517 131.493-1.077 5.067z"/><path fill="#737069" d="M-9.978-2.356l4.011-5.24L91.55 123.896l-1.077 5.067z"/></g><g mask="url(#d)"><path fill="#2E2926" d="M-2.755-33.365l5.241-11.028L100.003 87.1l-2.923 13.75z"/><path fill="#130F0E" d="M-1.525-39.152l4.011-5.241L100.003 87.1l-1.077 5.067z"/><path fill="#737069" d="M-9.978-34.9l4.011-5.24L91.55 91.352l-1.077 5.067z"/></g><g mask="url(#d)"><path fill="#2E2926" d="M-2.755-62.95L2.486-73.98l97.517 131.494-2.923 13.749z"/><path fill="#130F0E" d="M-1.525-68.738l4.011-5.24 97.517 131.493-1.077 5.067z"/><path fill="#737069" d="M-9.978-64.485l4.011-5.241L91.55 61.767l-1.077 5.067z"/></g><g mask="url(#d)"><path fill="#2E2926" d="M-6.447 28.765l5.241-11.029L96.311 149.23l-2.923 13.749z"/><path fill="#130F0E" d="M-5.217 22.977l4.011-5.24L96.311 149.23l-1.077 5.067z"/><path fill="#737069" d="M-13.67 27.23l4.011-5.241 97.517 131.493-1.077 5.067z"/></g><g mask="url(#d)"><path fill="#2E2926" d="M-6.447 64.267l5.241-11.028 97.517 131.493-2.923 13.75z"/><path fill="#130F0E" d="M-5.217 58.48l4.011-5.241 97.517 131.493-1.077 5.067z"/><path fill="#737069" d="M-13.67 62.732l4.011-5.24 97.517 131.493-1.077 5.067z"/></g><g mask="url(#d)"><path fill="#2E2926" d="M-10.14 93.853l5.242-11.029L92.62 214.318l-2.923 13.749z"/><path fill="#130F0E" d="M-8.91 88.065l4.012-5.24L92.62 214.317l-1.077 5.067z"/><path fill="#737069" d="M-17.362 92.318l4.011-5.241L84.166 218.57l-1.077 5.068z"/></g></g><path fill="#3B3633" d="M801.58 685.779l13.77 11.014v30.291l-13.77-8.26z"/><path fill="#333230" d="M815.35 673.3l13.768-15.059v33.131l-11.015 15.06z"/><path d="M777.492 774.263l-3.449 1.012 2.234-14.555 3.45-1.012-2.235 14.555zm2.898-.85l2.234-14.556 4.516-1.325c.985-.289 1.861-.414 2.628-.375.767.04 1.398.236 1.893.59.494.355.841.867 1.04 1.537.2.67.225 1.495.075 2.475l-.347 2.26c-.15.979-.44 1.895-.87 2.746a9.65 9.65 0 0 1-1.632 2.317 10.691 10.691 0 0 1-2.272 1.807c-.855.512-1.783.915-2.784 1.209l-4.481 1.314zm5.307-13.118l-1.484 9.666 1.032-.303c.61-.179 1.129-.396 1.557-.652.427-.256.785-.57 1.074-.94.288-.371.519-.805.692-1.302.174-.496.31-1.074.412-1.734l.35-2.279c.102-.666.138-1.218.108-1.655-.03-.436-.144-.766-.341-.988-.197-.222-.487-.342-.869-.36-.382-.019-.87.059-1.464.233l-1.067.314zm18.053.249l-5.373 1.576-.592 3.859 6.358-1.866-.374 2.44-9.807 2.877 2.234-14.555 9.783-2.87-.376 2.448-6.334 1.86-.528 3.438 5.373-1.577-.364 2.37zm10.611.055l-4.704 1.38-1.372 3.248-3.648 1.07 7.571-16.12 3.156-.926 3.138 12.978-3.683 1.08-.458-2.71zm-3.577-1.289l3.19-.936-.798-4.72-2.392 5.656zm13.137-1l6.053-1.776-.374 2.439-9.502 2.788 2.234-14.555 3.449-1.012-1.86 12.116zm17.461-8.809l-5.373 1.577-.592 3.859 6.358-1.866-.374 2.44-9.807 2.877 2.234-14.555 9.783-2.871-.376 2.45-6.334 1.858-.528 3.439 5.373-1.577-.364 2.37zm13.943 1.923l-3.449 1.012-3.579-8.066-1.465 9.546-3.449 1.012 2.234-14.555 3.45-1.012 3.588 8.074 1.467-9.557 3.437-1.009-2.234 14.555zm10.569-6.748c.039-.253.046-.471.022-.655a.708.708 0 0 0-.26-.463c-.148-.125-.372-.224-.67-.295-.3-.071-.705-.121-1.216-.15a12.029 12.029 0 0 1-1.727-.17c-.541-.096-1.005-.26-1.391-.494a2.177 2.177 0 0 1-.863-.95c-.189-.4-.235-.916-.137-1.55.093-.606.31-1.2.654-1.78a7.135 7.135 0 0 1 1.317-1.614 9.806 9.806 0 0 1 1.84-1.327c.69-.39 1.435-.703 2.233-.937.82-.241 1.545-.347 2.171-.317.627.029 1.142.174 1.547.434.404.26.69.628.855 1.104.166.476.198 1.045.097 1.704l-3.437 1.009a2.74 2.74 0 0 0 .018-.812.982.982 0 0 0-.25-.557c-.133-.136-.316-.219-.55-.249-.235-.03-.528.007-.88.11a3.512 3.512 0 0 0-.87.38 3.066 3.066 0 0 0-.647.529c-.18.195-.324.408-.434.638-.11.23-.183.46-.219.694-.036.24-.01.439.082.596.092.158.236.287.434.389.197.1.443.178.737.232.294.054.622.094.984.122.76.012 1.414.081 1.962.207.548.125.993.32 1.333.582.341.263.572.604.695 1.023.122.42.137.929.045 1.529a5.306 5.306 0 0 1-.632 1.817 6.594 6.594 0 0 1-1.25 1.575 8.842 8.842 0 0 1-1.78 1.277c-.678.373-1.423.68-2.236.918a8.3 8.3 0 0 1-2.121.35c-.679.018-1.265-.088-1.76-.318a2.297 2.297 0 0 1-1.115-1.096c-.248-.5-.309-1.163-.182-1.99l3.46-1.015c-.067.44-.073.798-.019 1.075.055.277.171.48.35.609.178.129.413.19.705.184a4.13 4.13 0 0 0 1.048-.188c.329-.096.615-.22.858-.371.244-.151.449-.32.615-.505.167-.186.297-.388.39-.606.094-.219.158-.444.194-.678z" fill="#383330"/></g></svg>
